<?xml version="1.0" encoding="iso-8859-1"?>
<!-- Generator: Adobe Illustrator 16.0.0, SVG Export Plug-In . SVG Version: 6.00 Build 0)  -->
<!DOCTYPE svg PUBLIC "-//W3C//DTD SVG 1.1//EN" "http://www.w3.org/Graphics/SVG/1.1/DTD/svg11.dtd">
<svg version="1.1" id="Capa_1" xmlns="http://www.w3.org/2000/svg" xmlns:xlink="http://www.w3.org/1999/xlink" x="0px" y="0px"
	 width="612px" height="612px" viewBox="0 0 612 612" style="enable-background:new 0 0 612 612;" xml:space="preserve">
<g>
	<path d="M205.397,322.768c67.137,0,121.562-54.425,121.562-121.562c0-67.136-54.425-121.562-121.562-121.562
		c-67.136,0-121.562,54.425-121.562,121.562C83.835,268.343,138.261,322.768,205.397,322.768z M262.964,249.257
		c-5.53,18.284-29.219,32.029-57.609,32.029s-52.079-13.745-57.609-32.029H262.964z M612,373.24v31.893
		c0,4.727-3.48,10.221-7.799,12.143c-16.737,7.447-62.39,22.691-155.68,22.691c-4.469,0-8.729-0.064-12.981-0.133
		c-4.096-67.562-55.354-123.203-123.09-132.367c14.583-14.61,33.885-24.514,55.409-26.976c1.411-0.161,3.503,0.443,4.653,1.275
		c21.408,15.499,47.617,24.749,76.009,24.749c28.391,0,54.6-9.25,76.008-24.749c1.15-0.833,3.242-1.437,4.653-1.275
		C575.612,285.801,612,325.449,612,373.24z M410.794,448.521v40.07c0,5.938-4.372,12.842-9.798,15.256
		c-21.029,9.355-78.388,28.508-195.599,28.508c-117.211,0-174.57-19.152-195.599-28.508C4.373,501.434,0,494.529,0,488.592v-40.07
		c0-60.047,45.718-109.861,104.054-116.533c1.772-0.203,4.401,0.557,5.846,1.604c26.897,19.471,59.827,31.094,95.497,31.094
		s68.6-11.623,95.498-31.094c1.445-1.047,4.074-1.807,5.846-1.604C365.077,338.662,410.794,388.475,410.794,448.521z
		 M448.521,79.645c-53.436,0-96.754,43.318-96.754,96.753c0,53.436,43.318,96.752,96.754,96.752
		c53.435,0,96.753-43.318,96.753-96.752C545.273,122.962,501.956,79.645,448.521,79.645z M448.521,239.228
		c-23.303,0-42.745-11.282-47.284-26.289h94.567C491.266,227.947,471.822,239.228,448.521,239.228z"/>
</g>
</svg>
